<mxfile host="app.diagrams.net" modified="2022-10-18T01:56:26.958Z" agent="5.0 (Macintosh; Intel Mac OS X 10_15_7) AppleWebKit/537.36 (KHTML, like Gecko) Chrome/105.0.0.0 Safari/537.36" etag="CKjp7PAt3FMFRl_IPjES" version="20.4.0" type="github">
  <diagram id="oufTNk10cAABfDGOzWxb" name="第 1 页">
    <mxGraphModel dx="1426" dy="794" grid="1" gridSize="10" guides="1" tooltips="1" connect="1" arrows="1" fold="1" page="1" pageScale="1" pageWidth="827" pageHeight="1169" math="0" shadow="0">
      <root>
        <mxCell id="0" />
        <mxCell id="1" parent="0" />
        <mxCell id="w3OrszlzxA1v-6RxRuSb-1" value="机器人号-时间-栏位号-高度.jpg" style="rounded=1;whiteSpace=wrap;html=1;glass=0;shadow=0;sketch=0;" vertex="1" parent="1">
          <mxGeometry x="200" y="90" width="386" height="60" as="geometry" />
        </mxCell>
        <mxCell id="w3OrszlzxA1v-6RxRuSb-2" value="" style="rounded=0;whiteSpace=wrap;html=1;shadow=0;glass=0;sketch=0;" vertex="1" parent="1">
          <mxGeometry x="120" y="230" width="240" height="180" as="geometry" />
        </mxCell>
        <mxCell id="w3OrszlzxA1v-6RxRuSb-3" value="" style="rounded=0;whiteSpace=wrap;html=1;shadow=0;glass=0;sketch=0;strokeWidth=0;" vertex="1" parent="1">
          <mxGeometry x="540" y="230" width="280" height="240" as="geometry" />
        </mxCell>
        <mxCell id="w3OrszlzxA1v-6RxRuSb-4" value="数据库" style="rounded=0;whiteSpace=wrap;html=1;shadow=0;glass=0;sketch=0;" vertex="1" parent="1">
          <mxGeometry x="130" y="240" width="50" height="20" as="geometry" />
        </mxCell>
        <mxCell id="w3OrszlzxA1v-6RxRuSb-5" value="MINIO" style="rounded=0;whiteSpace=wrap;html=1;shadow=0;glass=0;sketch=0;" vertex="1" parent="1">
          <mxGeometry x="550" y="240" width="50" height="20" as="geometry" />
        </mxCell>
        <mxCell id="w3OrszlzxA1v-6RxRuSb-24" style="edgeStyle=orthogonalEdgeStyle;rounded=0;orthogonalLoop=1;jettySize=auto;html=1;exitX=0;exitY=1;exitDx=0;exitDy=0;entryX=0;entryY=0.5;entryDx=0;entryDy=0;endArrow=none;endFill=0;" edge="1" parent="1" source="w3OrszlzxA1v-6RxRuSb-15" target="w3OrszlzxA1v-6RxRuSb-18">
          <mxGeometry relative="1" as="geometry" />
        </mxCell>
        <mxCell id="w3OrszlzxA1v-6RxRuSb-15" value="" style="shape=partialRectangle;whiteSpace=wrap;html=1;bottom=0;right=0;fillColor=none;rounded=1;shadow=0;glass=0;sketch=0;" vertex="1" parent="1">
          <mxGeometry x="560" y="270" width="20" height="30" as="geometry" />
        </mxCell>
        <mxCell id="w3OrszlzxA1v-6RxRuSb-22" style="edgeStyle=orthogonalEdgeStyle;rounded=0;orthogonalLoop=1;jettySize=auto;html=1;exitX=1;exitY=0.5;exitDx=0;exitDy=0;entryX=0;entryY=0.75;entryDx=0;entryDy=0;endArrow=none;endFill=0;" edge="1" parent="1" target="w3OrszlzxA1v-6RxRuSb-20">
          <mxGeometry relative="1" as="geometry">
            <mxPoint x="590" y="330" as="sourcePoint" />
          </mxGeometry>
        </mxCell>
        <mxCell id="w3OrszlzxA1v-6RxRuSb-17" value="pigio" style="rounded=0;whiteSpace=wrap;html=1;shadow=0;glass=0;sketch=0;" vertex="1" parent="1">
          <mxGeometry x="580" y="260" width="50" height="20" as="geometry" />
        </mxCell>
        <mxCell id="w3OrszlzxA1v-6RxRuSb-18" value="猪场英文名" style="rounded=0;whiteSpace=wrap;html=1;shadow=0;glass=0;sketch=0;" vertex="1" parent="1">
          <mxGeometry x="590" y="290" width="70" height="20" as="geometry" />
        </mxCell>
        <mxCell id="w3OrszlzxA1v-6RxRuSb-20" value="猪舍英文名" style="rounded=0;whiteSpace=wrap;html=1;shadow=0;glass=0;sketch=0;" vertex="1" parent="1">
          <mxGeometry x="605" y="320" width="75" height="20" as="geometry" />
        </mxCell>
        <mxCell id="w3OrszlzxA1v-6RxRuSb-21" style="edgeStyle=orthogonalEdgeStyle;rounded=0;orthogonalLoop=1;jettySize=auto;html=1;entryX=1;entryY=0.5;entryDx=0;entryDy=0;endArrow=none;endFill=0;" edge="1" parent="1">
          <mxGeometry relative="1" as="geometry">
            <mxPoint x="570" y="330" as="sourcePoint" />
            <mxPoint x="605" y="329.5" as="targetPoint" />
          </mxGeometry>
        </mxCell>
        <mxCell id="w3OrszlzxA1v-6RxRuSb-32" value="" style="line;strokeWidth=2;direction=south;html=1;rounded=1;shadow=0;glass=0;sketch=0;" vertex="1" parent="1">
          <mxGeometry x="565" y="300" width="10" height="30" as="geometry" />
        </mxCell>
        <mxCell id="w3OrszlzxA1v-6RxRuSb-34" value="" style="line;strokeWidth=2;direction=south;html=1;rounded=1;shadow=0;glass=0;sketch=0;" vertex="1" parent="1">
          <mxGeometry x="580" y="330" width="10" height="30" as="geometry" />
        </mxCell>
        <mxCell id="w3OrszlzxA1v-6RxRuSb-35" style="edgeStyle=orthogonalEdgeStyle;rounded=0;orthogonalLoop=1;jettySize=auto;html=1;entryX=1;entryY=0.5;entryDx=0;entryDy=0;endArrow=none;endFill=0;" edge="1" parent="1">
          <mxGeometry relative="1" as="geometry">
            <mxPoint x="586" y="360.5" as="sourcePoint" />
            <mxPoint x="621" y="360" as="targetPoint" />
          </mxGeometry>
        </mxCell>
        <mxCell id="w3OrszlzxA1v-6RxRuSb-37" value="栏位号" style="rounded=0;whiteSpace=wrap;html=1;shadow=0;glass=0;sketch=0;" vertex="1" parent="1">
          <mxGeometry x="620" y="350" width="75" height="20" as="geometry" />
        </mxCell>
        <mxCell id="w3OrszlzxA1v-6RxRuSb-38" value="" style="line;strokeWidth=2;direction=south;html=1;rounded=1;shadow=0;glass=0;sketch=0;" vertex="1" parent="1">
          <mxGeometry x="600" y="360" width="10" height="70" as="geometry" />
        </mxCell>
        <mxCell id="w3OrszlzxA1v-6RxRuSb-39" value="&lt;span style=&quot;text-align: center;&quot;&gt;&lt;font style=&quot;font-size: 12px;&quot;&gt;机器人号-时间-栏位号-高度.jpg&lt;br&gt;&lt;/font&gt;&lt;/span&gt;&lt;span style=&quot;text-align: center;&quot;&gt;机器人号-时间-栏位号-高度.png&lt;/span&gt;&lt;span style=&quot;text-align: center;&quot;&gt;&lt;font style=&quot;font-size: 12px;&quot;&gt;&lt;br&gt;&lt;/font&gt;&lt;/span&gt;" style="rounded=0;whiteSpace=wrap;html=1;shadow=0;glass=0;sketch=0;strokeWidth=0;strokeColor=#FFFFFF;align=left;" vertex="1" parent="1">
          <mxGeometry x="610" y="380" width="190" height="60" as="geometry" />
        </mxCell>
      </root>
    </mxGraphModel>
  </diagram>
</mxfile>
